<svg width="71" height="44" viewBox="0 0 71 44" fill="none" xmlns="http://www.w3.org/2000/svg">
<circle cx="22" cy="22" r="22" fill="#FF6B09"/>
<path d="M16.494 15.4H19.41V25.624H25.728V28H16.494V15.4ZM33.6083 28.216C32.3003 28.216 31.1183 27.934 30.0623 27.37C29.0183 26.806 28.1963 26.032 27.5963 25.048C27.0083 24.052 26.7143 22.936 26.7143 21.7C26.7143 20.464 27.0083 19.354 27.5963 18.37C28.1963 17.374 29.0183 16.594 30.0623 16.03C31.1183 15.466 32.3003 15.184 33.6083 15.184C34.9163 15.184 36.0923 15.466 37.1363 16.03C38.1803 16.594 39.0023 17.374 39.6023 18.37C40.2023 19.354 40.5023 20.464 40.5023 21.7C40.5023 22.936 40.2023 24.052 39.6023 25.048C39.0023 26.032 38.1803 26.806 37.1363 27.37C36.0923 27.934 34.9163 28.216 33.6083 28.216ZM33.6083 25.732C34.3523 25.732 35.0243 25.564 35.6243 25.228C36.2243 24.88 36.6923 24.4 37.0283 23.788C37.3763 23.176 37.5503 22.48 37.5503 21.7C37.5503 20.92 37.3763 20.224 37.0283 19.612C36.6923 19 36.2243 18.526 35.6243 18.19C35.0243 17.842 34.3523 17.668 33.6083 17.668C32.8643 17.668 32.1923 17.842 31.5923 18.19C30.9923 18.526 30.5183 19 30.1703 19.612C29.8343 20.224 29.6663 20.92 29.6663 21.7C29.6663 22.48 29.8343 23.176 30.1703 23.788C30.5183 24.4 30.9923 24.88 31.5923 25.228C32.1923 25.564 32.8643 25.732 33.6083 25.732ZM51.5678 21.502H54.2318V26.614C53.5478 27.13 52.7558 27.526 51.8558 27.802C50.9558 28.078 50.0498 28.216 49.1378 28.216C47.8298 28.216 46.6538 27.94 45.6098 27.388C44.5658 26.824 43.7438 26.05 43.1438 25.066C42.5558 24.07 42.2618 22.948 42.2618 21.7C42.2618 20.452 42.5558 19.336 43.1438 18.352C43.7438 17.356 44.5718 16.582 45.6278 16.03C46.6838 15.466 47.8718 15.184 49.1918 15.184C50.2958 15.184 51.2978 15.37 52.1978 15.742C53.0978 16.114 53.8538 16.654 54.4658 17.362L52.5938 19.09C51.6938 18.142 50.6078 17.668 49.3358 17.668C48.5318 17.668 47.8178 17.836 47.1938 18.172C46.5698 18.508 46.0838 18.982 45.7358 19.594C45.3878 20.206 45.2138 20.908 45.2138 21.7C45.2138 22.48 45.3878 23.176 45.7358 23.788C46.0838 24.4 46.5638 24.88 47.1758 25.228C47.7998 25.564 48.5078 25.732 49.2998 25.732C50.1398 25.732 50.8958 25.552 51.5678 25.192V21.502ZM63.4026 28.216C62.0946 28.216 60.9126 27.934 59.8566 27.37C58.8126 26.806 57.9906 26.032 57.3906 25.048C56.8026 24.052 56.5086 22.936 56.5086 21.7C56.5086 20.464 56.8026 19.354 57.3906 18.37C57.9906 17.374 58.8126 16.594 59.8566 16.03C60.9126 15.466 62.0946 15.184 63.4026 15.184C64.7106 15.184 65.8866 15.466 66.9306 16.03C67.9746 16.594 68.7966 17.374 69.3966 18.37C69.9966 19.354 70.2966 20.464 70.2966 21.7C70.2966 22.936 69.9966 24.052 69.3966 25.048C68.7966 26.032 67.9746 26.806 66.9306 27.37C65.8866 27.934 64.7106 28.216 63.4026 28.216ZM63.4026 25.732C64.1466 25.732 64.8186 25.564 65.4186 25.228C66.0186 24.88 66.4866 24.4 66.8226 23.788C67.1706 23.176 67.3446 22.48 67.3446 21.7C67.3446 20.92 67.1706 20.224 66.8226 19.612C66.4866 19 66.0186 18.526 65.4186 18.19C64.8186 17.842 64.1466 17.668 63.4026 17.668C62.6586 17.668 61.9866 17.842 61.3866 18.19C60.7866 18.526 60.3126 19 59.9646 19.612C59.6286 20.224 59.4606 20.92 59.4606 21.7C59.4606 22.48 59.6286 23.176 59.9646 23.788C60.3126 24.4 60.7866 24.88 61.3866 25.228C61.9866 25.564 62.6586 25.732 63.4026 25.732Z" fill="white"/>
</svg>
